<svg width="1156" height="1861" viewBox="0 0 1156 1861" fill="none" xmlns="http://www.w3.org/2000/svg">
<g clip-path="url(#clip0_1297_471)">
<path d="M596.445 817.213C588.355 844.525 580.733 872.375 573.364 899.304C561.497 942.671 549.223 987.519 534.815 1030.66C512.493 1097.47 475.864 1155.34 437.115 1213.64C354.415 1338.08 257.958 1453.48 150.441 1556.62L175.948 1583.2C285.415 1478.19 383.606 1360.7 467.804 1234.02C507.98 1173.57 546.007 1113.42 569.764 1042.32C584.494 998.209 596.906 952.87 608.903 909.02C616.219 882.275 623.787 854.617 631.77 827.673" fill="#004932"/>
<path d="M1033.95 418.997C994.697 481.342 950.307 540.611 901.235 596.111C880.348 619.733 858.602 642.678 836.058 664.91L852.5 674.5L872.02 681.08C891.571 661.411 910.53 641.212 928.838 620.507C978.355 564.508 1023.22 504.772 1063.01 441.966C1060.3 436.625 1055.96 430.977 1048.07 425.344L1033.95 418.997Z" fill="#004932"/>
<path d="M702.182 852.906C691.044 877.663 677.365 900.264 659.012 916.51C642.609 931.03 622.313 938.819 602.87 939.172C602.655 949.072 601.596 959.486 599.677 970.399C594.089 1002.19 578.867 1039.97 556.807 1076.77C535.767 1111.87 510.359 1143.34 485.267 1165.41C418.509 1224.09 342.847 1290.6 263.731 1348.55C176.294 1412.61 94.3453 1458.9 13.218 1490.07L0 1455.69C78.0415 1425.7 157.188 1380.94 241.962 1318.84C319.758 1261.85 394.767 1195.91 460.942 1137.74C482.933 1118.42 506.353 1089.29 525.205 1057.84C545.009 1024.8 558.572 991.487 563.393 964.029C564.314 958.803 565.097 953.078 565.557 947.077C558.181 947.967 550.735 947.836 543.589 946.609C525.535 943.516 507.719 934.875 494.7 922.911C478.566 908.084 470.467 888.937 471.903 869.007C473.308 849.46 483.778 835.701 500.626 831.257C514.819 827.512 531.829 831.357 547.12 838.617C548.701 836.253 550.451 833.997 552.37 831.879L556.07 827.796L561.405 826.415C578.591 821.956 597.052 827.581 610.792 841.472C624.808 855.638 631.302 875.821 627.955 893.917C630.358 892.39 632.591 890.709 634.603 888.929C662.451 864.279 678.816 814.497 693.247 770.569C698.559 754.415 703.571 739.151 708.99 725.529C735.833 658.011 759.721 588.306 779.978 518.333C820.63 377.925 847.756 233.243 860.598 88.3076L897.297 91.5615C884.248 238.853 856.676 385.891 815.364 528.578C794.777 599.68 770.505 670.521 743.225 739.136C738.22 751.714 733.377 766.456 728.249 782.065C720.612 805.295 712.491 830.022 702.189 852.906M582.513 865.515C583.204 866.405 583.841 867.295 584.425 868.178C587.157 872.276 589.591 876.574 591.717 881.071C590.919 876.251 588.386 871.232 584.578 867.372C584.072 866.866 583.373 866.206 582.513 865.515ZM509.546 867.257C509.285 867.84 508.832 869.168 508.655 871.662C508.026 880.403 511.718 888.522 519.64 895.797C526.717 902.305 536.634 907.363 546.667 909.672C542.123 902.213 539.006 893.656 537.609 884.44C537.118 881.201 536.849 877.97 536.803 874.785C534.685 873.565 532.435 872.406 530.11 871.34C518.757 866.16 511.495 866.16 509.692 866.981C509.653 867.042 509.607 867.134 509.553 867.257" fill="#FFAA00"/>
<path d="M546.805 1253.16C530.363 1289.71 510.651 1325.56 487.846 1360.39C451.139 1416.43 406.757 1469.32 355.934 1517.56C306.578 1564.4 251.994 1606.09 193.711 1641.48L174.59 1609.99C230.64 1575.97 283.12 1535.88 330.565 1490.84C379.323 1444.56 421.871 1393.88 457.019 1340.21C493.718 1284.17 521.965 1225.41 540.994 1165.53C559.961 1105.84 569.733 1045.01 570.086 984.573C545.5 987.205 523.508 982.194 506.89 969.938C492.398 959.248 482.887 941.858 481.452 923.44C480.216 907.508 485.251 892.958 495.637 882.467C506.022 871.976 520.507 866.743 536.427 867.74C547.572 868.439 558.718 872.184 568.351 878.2C558.971 869.429 557.206 860.25 557.436 853.934C557.697 846.928 560.714 836.621 573.617 827.312C584.064 819.769 597.919 816.024 612.626 816.776C614.745 816.883 616.84 817.083 618.905 817.367C625.79 785.779 623.357 751.475 621.008 718.284C620.832 715.797 620.655 713.311 620.486 710.832C612.411 594.368 614.553 472.77 617.193 367.94C620.141 251.016 636.521 134.544 665.874 21.7637L701.529 31.0418C672.883 141.098 656.901 254.761 654.03 368.869C651.413 472.854 649.279 593.424 657.247 708.284C657.415 710.748 657.592 713.211 657.769 715.682C660.34 752.02 663.004 789.594 654.545 826.86C654.153 828.571 653.608 830.643 652.887 832.976C664.692 843.996 672.291 859.452 674.418 876.926C676.544 894.423 673.097 912.412 664.685 927.569C653.109 948.435 632.584 965.272 606.923 975.402C607.552 1042.65 597.198 1110.36 576.119 1176.69C567.937 1202.43 558.15 1227.96 546.813 1253.16M603.845 936.34C616.579 929.533 626.543 920.362 632.461 909.695C639.569 896.879 639.991 881.116 634.549 869.444C627.932 878.024 619.665 885.314 609.64 888.676C598.925 892.275 587.771 890.947 577.524 885C580.64 887.747 583.488 890.763 585.991 894.017C595.816 906.802 601.066 921.291 603.845 936.348M519.455 911.852C518.135 914.791 517.989 918.045 518.189 920.585C518.788 928.259 522.94 936.002 528.766 940.3C538.146 947.222 552.209 949.77 568.344 947.675C566.647 935.864 563.308 924.967 556.768 916.464C551.671 909.833 542.575 905.029 534.132 904.5C530.493 904.27 525.404 904.761 521.827 908.368C520.783 909.427 520.008 910.616 519.455 911.852Z" fill="#7F35E9"/>
<path d="M579.765 12.0792L544.955 0C525.397 56.3365 510.989 115.044 502.146 174.489C500.074 188.441 498.293 202.538 496.796 216.751C502.814 208.102 510.95 202.523 520.346 198.954C524.33 197.443 528.905 197.228 532.98 197.535C534.024 197.611 535.061 197.742 536.097 197.888C536.872 191.871 537.694 185.877 538.584 179.915C547.097 122.726 560.944 66.2593 579.758 12.0792" fill="#D7FF3C"/>
<path d="M517.859 521.809L506.859 516.859C507.274 519.438 507.681 522.016 508.11 524.595C517.421 580.502 530.793 638.788 547.864 697.841C550.351 706.436 552.93 715.077 555.671 724.232C569.119 769.211 584.356 820.191 586.321 864.41C586.628 871.263 586.505 878.216 586.367 885.552C577.601 888.998 570.24 894.147 564.36 900.985C544.51 924.062 547.488 958.749 551.833 989.446C555.832 1017.65 560.476 1046.14 564.974 1073.7C572.212 1118.07 579.696 1163.97 584.525 1209.19C592.009 1279.23 582.751 1347.09 571.752 1416.22C548.271 1563.76 508.533 1708.8 453.626 1847.31L487.884 1860.88C543.781 1719.87 584.241 1572.21 608.144 1422C619.55 1350.33 629.13 1279.82 621.17 1205.28C616.234 1159.04 608.665 1112.64 601.343 1067.77C596.875 1040.4 592.262 1012.1 588.316 984.281C586.467 971.243 582.913 946.14 588.593 931.436C588.662 931.828 588.739 932.227 588.815 932.618C590.773 942.672 596.307 955.656 603.254 966.508C613.355 982.271 624.762 991.349 637.166 993.498C643.998 994.68 661.284 995.079 674.264 973.223C685.141 954.904 685.133 933.555 674.249 914.653C663.433 895.866 643.99 883.135 623.296 880.771C623.38 874.877 623.396 868.861 623.127 862.775C620.962 814.005 605.027 760.708 590.972 713.68C588.263 704.609 585.699 696.045 583.266 687.611C568.612 636.923 556.853 587.086 547.995 538.34L516.746 524.288L517.866 521.802L517.859 521.809ZM642.317 933.033C645.226 938.09 647.629 945.91 642.578 954.428C642.248 954.981 641.948 955.449 641.672 955.841C635.946 950.852 626.957 935.757 624.977 925.581C624.516 923.217 624.156 920.815 623.879 918.383C631.302 920.646 638.287 926.034 642.309 933.033" fill="#D7FF3C"/>
<path d="M589.959 918.321C608.12 905.689 628.669 890.387 642.647 868.707C642.831 868.423 643.015 868.131 643.192 867.847C648.803 864.67 654.146 861.225 659.158 857.81C735.979 805.433 807.304 746.188 872.012 681.087L836.051 664.91C781.098 719.106 721.379 769.026 657.607 814.043M657.615 814.043C657.001 804.98 654.798 796.247 650.96 788.304C641.948 769.648 624.463 755.942 604.19 751.644C593.337 749.342 582.659 749.964 573.318 753.448C552.999 761.014 538.753 782.648 537.026 808.579C536.135 821.986 538.76 835.846 544.425 847.595C551.848 863.005 562.932 862.829 574.239 877.202C580.395 885.038 587.572 897.746 589.959 918.321M617.785 804.328C622.567 814.235 621.86 827.658 616.234 840.335C606.485 844.725 596.791 846.828 588.877 843.397C577.992 838.685 572.98 823.199 573.794 811.02C574.078 806.738 575.145 802.01 576.987 797.912C579.067 793.3 582.13 789.478 586.175 787.966C588.915 786.946 592.6 786.846 596.553 787.682C605.618 789.609 613.755 795.978 617.792 804.328" fill="#004932"/>
<path d="M1113.03 213.52C1120.38 227.863 1125.25 251.4 1097.46 306.577C1078.11 345.018 1056.9 382.529 1033.94 418.997L1045 429C1052.89 434.633 1060.29 436.632 1063.01 441.966C1087.41 403.457 1109.9 363.796 1130.37 323.138C1132.92 318.073 1135.46 312.817 1137.91 307.383C1153.21 273.379 1164.39 232.997 1145.82 196.729L1113.02 213.512L1113.03 213.52Z" fill="#004932"/>
<path d="M487.884 1860.88L453.634 1847.3C508.533 1708.8 548.279 1563.76 571.759 1416.21C582.759 1347.08 592.016 1279.22 584.532 1209.18C579.704 1163.96 572.22 1118.07 564.982 1073.69C560.483 1046.14 555.839 1017.64 551.84 989.438C547.488 958.742 544.517 924.054 564.367 900.978C570.247 894.14 577.601 888.99 586.374 885.545C586.52 878.208 586.635 871.255 586.328 864.402C585.561 847.058 582.774 829.93 579.405 812.924C576.258 797.046 581.047 785.273 599.639 789.195C605.365 790.407 612.066 797.598 614.898 802.533C617.692 807.413 617.378 814.911 618.314 820.368C620.732 834.388 622.498 848.547 623.135 862.768C623.403 868.846 623.396 874.862 623.304 880.756C643.998 883.112 663.441 895.851 674.257 914.638C685.141 933.539 685.141 954.889 674.272 973.207C661.3 995.064 644.006 994.665 637.174 993.483C624.77 991.334 613.363 982.248 603.262 966.492C596.315 955.649 590.78 942.664 588.823 932.603C588.746 932.212 588.67 931.813 588.6 931.421C582.92 946.125 586.474 971.228 588.324 984.266C592.27 1012.09 596.883 1040.39 601.35 1067.75C608.673 1112.63 616.242 1159.02 621.177 1205.26C629.137 1279.8 619.558 1350.31 608.151 1421.99C584.248 1572.2 543.788 1719.86 487.892 1860.86M641.68 955.841C641.956 955.442 642.255 954.974 642.586 954.429C647.636 945.91 645.234 938.09 642.325 933.033C638.295 926.042 631.317 920.647 623.895 918.383C624.171 920.815 624.532 923.217 624.992 925.581C626.973 935.757 635.961 950.852 641.687 955.841" fill="#D7FF3C"/>
<path d="M495.637 882.46C485.251 892.958 480.216 907.508 481.459 923.432C482.887 941.858 492.398 959.24 506.898 969.93C512.777 974.274 519.118 978.51 526.141 980.751C529.511 981.825 533.241 982.508 536.742 981.649C541.432 980.49 542.061 973.89 542.76 969.754C543.857 963.238 543.335 953.523 547.78 948.143C541.723 944.79 534.531 944.521 528.782 940.285C522.956 935.987 518.803 928.244 518.204 920.57C518.005 918.03 518.151 914.783 519.471 911.844C520.031 910.601 520.799 909.411 521.85 908.352C526.893 903.257 532.075 905.367 538.077 905.336C544.08 905.306 550.159 901.238 552.946 896.043C553.56 894.892 554.059 893.649 554.181 892.344C554.343 890.709 553.913 889.075 553.452 887.494C552.155 883.073 550.528 878.676 547.803 874.962C535.751 858.547 507.028 870.956 495.66 882.444" fill="#7F35E9"/>
<path d="M634.342 869.559C636.391 873.12 637.481 877.018 638.034 882.536C638.962 891.853 636.997 901.499 632.453 909.688C628.024 917.676 621.561 924.391 614.238 929.786C606.654 935.373 598.172 937.576 588.708 935.627C588.654 938.742 588.608 941.85 588.554 944.966C588.508 947.775 588.462 950.591 588.716 953.385C589.184 958.534 589.898 963.154 590.128 968.311C590.381 974.059 591.026 979.822 592.684 985.348C593.889 989.346 595.685 994.227 598.572 997.358C599.347 998.194 606.601 1001.49 606.593 1001.81C606.885 992.999 607 984.189 606.915 975.387C632.576 965.257 653.102 948.419 664.677 927.546C673.09 912.389 676.544 894.401 674.41 876.903C673.535 869.72 671.647 862.652 668.837 855.991C665.583 848.302 661.062 841.08 655.197 835.102C649.118 828.901 642.041 825.348 634.326 821.71C631.156 820.221 627.832 819.055 624.424 818.242C622.774 817.85 621.093 817.528 619.427 817.267C617.946 817.037 617.785 817.428 618.207 818.994C619.366 823.26 619.773 827.405 620.279 831.71C620.817 836.322 621.538 840.904 621.991 845.531C622.229 847.987 622.459 850.45 622.597 852.921C622.697 854.717 622.789 856.582 624.156 857.925C625.207 858.969 626.343 859.928 627.387 860.979C630.458 864.057 632.707 866.697 634.342 869.544" fill="#7F35E9"/>
<path d="M603.262 966.507C595.409 954.252 576.948 920.784 598.464 911.706C603.592 909.542 610.101 909.588 615.543 910.217C618.46 910.554 621.515 911.759 622.966 914.307C623.733 915.65 623.971 917.216 624.202 918.743C624.662 921.813 624.839 925.097 625.599 928.105C626.236 930.646 627.326 933.286 628.4 935.695C630.918 941.351 634.963 951.842 640.728 954.988C642.954 956.201 643.944 954.835 646.869 956.937C649.801 959.048 652.127 962.463 653.562 965.725C655.827 970.889 656.149 976.875 654.453 982.247C653.409 985.57 651.551 988.724 648.772 990.827C632.4 1003.24 610.776 978.234 603.262 966.507Z" fill="#D7FF3C"/>
<path d="M520.354 198.955C510.95 202.523 502.814 208.102 496.804 216.751C492.236 260.233 490.41 304.813 491.369 349.784C492.52 403.818 497.74 459.994 506.867 516.867L517.866 521.817L516.746 524.304L547.995 538.355C536.135 473.078 529.496 409.758 528.206 349.001C527.108 297.691 529.772 246.949 536.112 197.888C535.076 197.735 534.04 197.612 532.996 197.535C528.912 197.236 524.345 197.443 520.361 198.955" fill="#D7FF3C"/>
</g>
<defs>
<clipPath id="clip0_1297_471">
<rect width="1156" height="1861" fill="white"/>
</clipPath>
</defs>
</svg>
