<svg width="1506" height="2425" viewBox="0 0 1506 2425" fill="none" xmlns="http://www.w3.org/2000/svg">
<path d="M777.03 1064.88C766.49 1100.47 756.56 1136.76 746.96 1171.85C731.5 1228.36 715.51 1286.8 696.74 1343.01C667.66 1430.07 619.94 1505.48 569.46 1581.45C461.72 1743.6 336.06 1893.97 195.99 2028.38L229.22 2063.01C371.83 1926.17 499.75 1773.08 609.44 1608.01C661.78 1529.24 711.32 1450.86 742.27 1358.21C761.46 1300.73 777.63 1241.65 793.26 1184.51C802.79 1149.66 812.65 1113.62 823.05 1078.51" fill="#004932"/>
<path d="M1347 545.98C1295.86 627.22 1238.03 704.451 1174.1 776.771C1146.89 807.551 1118.56 837.45 1089.19 866.42L1136.04 887.49C1161.51 861.86 1186.21 835.54 1210.06 808.56C1274.57 735.59 1333.02 657.75 1384.86 575.91C1381.32 568.95 1375.67 561.59 1365.39 554.25L1347 545.98Z" fill="#004932"/>
<path d="M914.78 1111.39C900.27 1143.65 882.45 1173.1 858.54 1194.27C837.17 1213.19 810.73 1223.34 785.4 1223.8C785.12 1236.7 783.74 1250.27 781.24 1264.49C773.96 1305.92 754.13 1355.14 725.39 1403.1C697.98 1448.83 664.88 1489.85 632.19 1518.6C545.22 1595.06 446.65 1681.73 343.58 1757.25C229.67 1840.72 122.91 1901.04 17.22 1941.66L0 1896.86C101.67 1857.78 204.78 1799.45 315.22 1718.53C416.57 1644.27 514.29 1558.35 600.5 1482.55C629.15 1457.37 659.66 1419.41 684.22 1378.43C710.02 1335.38 727.69 1291.97 733.97 1256.19C735.17 1249.38 736.19 1241.92 736.79 1234.1C727.18 1235.26 717.48 1235.09 708.17 1233.49C684.65 1229.46 661.44 1218.2 644.48 1202.61C623.46 1183.29 612.91 1158.34 614.78 1132.37C616.61 1106.9 630.25 1088.97 652.2 1083.18C670.69 1078.3 692.85 1083.31 712.77 1092.77C714.83 1089.69 717.11 1086.75 719.61 1083.99L724.43 1078.67L731.38 1076.87C753.77 1071.06 777.82 1078.39 795.72 1096.49C813.98 1114.95 822.44 1141.25 818.08 1164.83C821.21 1162.84 824.12 1160.65 826.74 1158.33C863.02 1126.21 884.34 1061.34 903.14 1004.1C910.06 983.05 916.59 963.16 923.65 945.41C958.62 857.43 989.74 766.6 1016.13 675.42C1069.09 492.46 1104.43 303.93 1121.16 115.07L1168.97 119.31C1151.97 311.24 1116.05 502.84 1062.23 688.77C1035.41 781.42 1003.79 873.73 968.25 963.14C961.73 979.53 955.42 998.74 948.74 1019.08C938.79 1049.35 928.21 1081.57 914.79 1111.39M758.88 1127.82C759.78 1128.98 760.61 1130.14 761.37 1131.29C764.93 1136.63 768.1 1142.23 770.87 1148.09C769.83 1141.81 766.53 1135.27 761.57 1130.24C760.91 1129.58 760 1128.72 758.88 1127.82ZM663.82 1130.09C663.48 1130.85 662.89 1132.58 662.66 1135.83C661.84 1147.22 666.65 1157.8 676.97 1167.28C686.19 1175.76 699.11 1182.35 712.18 1185.36C706.26 1175.64 702.2 1164.49 700.38 1152.48C699.74 1148.26 699.39 1144.05 699.33 1139.9C696.57 1138.31 693.64 1136.8 690.61 1135.41C675.82 1128.66 666.36 1128.66 664.01 1129.73C663.96 1129.81 663.9 1129.93 663.83 1130.09" fill="#FFAA00"/>
<path d="M712.36 1632.94C690.94 1680.57 665.26 1727.29 635.55 1772.67C587.73 1845.7 529.91 1914.61 463.7 1977.47C399.4 2038.51 328.29 2092.84 252.36 2138.95L227.45 2097.92C300.47 2053.59 368.84 2001.35 430.65 1942.66C494.17 1882.35 549.6 1816.31 595.39 1746.38C643.2 1673.36 680 1596.78 704.79 1518.76C729.5 1440.98 742.23 1361.72 742.69 1282.96C710.66 1286.39 682.01 1279.86 660.36 1263.89C641.48 1249.96 629.09 1227.3 627.22 1203.3C625.61 1182.54 632.17 1163.58 645.7 1149.91C659.23 1136.24 678.1 1129.42 698.84 1130.72C713.36 1131.63 727.88 1136.51 740.43 1144.35C728.21 1132.92 725.91 1120.96 726.21 1112.73C726.55 1103.6 730.48 1090.17 747.29 1078.04C760.9 1068.21 778.95 1063.33 798.11 1064.31C800.87 1064.45 803.6 1064.71 806.29 1065.08C815.26 1023.92 812.09 979.219 809.03 935.969C808.8 932.729 808.57 929.489 808.35 926.259C797.83 774.499 800.62 616.049 804.06 479.449C807.9 327.089 829.24 175.319 867.48 28.3594L913.93 40.4494C876.61 183.859 855.79 331.969 852.05 480.659C848.64 616.159 845.86 773.269 856.24 922.939C856.46 926.149 856.69 929.359 856.92 932.579C860.27 979.929 863.74 1028.89 852.72 1077.45C852.21 1079.68 851.5 1082.38 850.56 1085.42C865.94 1099.78 875.84 1119.92 878.61 1142.69C881.38 1165.49 876.89 1188.93 865.93 1208.68C850.85 1235.87 824.11 1257.81 790.68 1271.01C791.5 1358.64 778.01 1446.87 750.55 1533.3C739.89 1566.84 727.14 1600.11 712.37 1632.95M786.67 1220.11C803.26 1211.24 816.24 1199.29 823.95 1185.39C833.21 1168.69 833.76 1148.15 826.67 1132.94C818.05 1144.12 807.28 1153.62 794.22 1158C780.26 1162.69 765.73 1160.96 752.38 1153.21C756.44 1156.79 760.15 1160.72 763.41 1164.96C776.21 1181.62 783.05 1200.5 786.67 1220.12M676.73 1188.2C675.01 1192.03 674.82 1196.27 675.08 1199.58C675.86 1209.58 681.27 1219.67 688.86 1225.27C701.08 1234.29 719.4 1237.61 740.42 1234.88C738.21 1219.49 733.86 1205.29 725.34 1194.21C718.7 1185.57 706.85 1179.31 695.85 1178.62C691.11 1178.32 684.48 1178.96 679.82 1183.66C678.46 1185.04 677.45 1186.59 676.73 1188.2Z" fill="#7F35E9"/>
<path d="M755.3 15.74L709.95 0C684.47 73.41 665.7 149.91 654.18 227.37C651.48 245.55 649.16 263.92 647.21 282.44C655.05 271.17 665.65 263.9 677.89 259.25C683.08 257.28 689.04 257 694.35 257.4C695.71 257.5 697.06 257.67 698.41 257.86C699.42 250.02 700.49 242.21 701.65 234.44C712.74 159.92 730.78 86.34 755.29 15.74" fill="#D7FF3C"/>
<path d="M674.65 679.95L660.32 673.5C660.86 676.86 661.39 680.22 661.95 683.58C674.08 756.43 691.5 832.38 713.74 909.33C716.98 920.53 720.34 931.79 723.91 943.72C741.43 1002.33 761.28 1068.76 763.84 1126.38C764.24 1135.31 764.08 1144.37 763.9 1153.93C752.48 1158.42 742.89 1165.13 735.23 1174.04C709.37 1204.11 713.25 1249.31 718.91 1289.31C724.12 1326.06 730.17 1363.19 736.03 1399.1C745.46 1456.92 755.21 1516.72 761.5 1575.65C771.25 1666.92 759.19 1755.34 744.86 1845.42C714.27 2037.68 662.5 2226.68 590.97 2407.16L635.6 2424.84C708.42 2241.1 761.13 2048.69 792.27 1852.96C807.13 1759.56 819.61 1667.68 809.24 1570.55C802.81 1510.3 792.95 1449.84 783.41 1391.37C777.59 1355.71 771.58 1318.83 766.44 1282.58C764.03 1265.59 759.4 1232.88 766.8 1213.72C766.89 1214.23 766.99 1214.75 767.09 1215.26C769.64 1228.36 776.85 1245.28 785.9 1259.42C799.06 1279.96 813.92 1291.79 830.08 1294.59C838.98 1296.13 861.5 1296.65 878.41 1268.17C892.58 1244.3 892.57 1216.48 878.39 1191.85C864.3 1167.37 838.97 1150.78 812.01 1147.7C812.12 1140.02 812.14 1132.18 811.79 1124.25C808.97 1060.7 788.21 991.25 769.9 929.97C766.37 918.15 763.03 906.99 759.86 896C740.77 829.95 725.45 765.01 713.91 701.49L673.2 683.18L674.66 679.94L674.65 679.95ZM836.79 1215.8C840.58 1222.39 843.71 1232.58 837.13 1243.68C836.7 1244.4 836.31 1245.01 835.95 1245.52C828.49 1239.02 816.78 1219.35 814.2 1206.09C813.6 1203.01 813.13 1199.88 812.77 1196.71C822.44 1199.66 831.54 1206.68 836.78 1215.8" fill="#D7FF3C"/>
<path d="M768.58 1196.63C792.24 1180.17 819.01 1160.23 837.22 1131.98C837.46 1131.61 837.7 1131.23 837.93 1130.86C845.24 1126.72 852.2 1122.23 858.73 1117.78C958.81 1049.53 1051.73 972.33 1136.03 887.5L1089.18 866.42C1017.59 937.04 939.79 1002.09 856.71 1060.75M856.72 1060.75C855.92 1048.94 853.05 1037.56 848.05 1027.21C836.31 1002.9 813.53 985.04 787.12 979.44C772.98 976.44 759.07 977.25 746.9 981.79C720.43 991.65 701.87 1019.84 699.62 1053.63C698.46 1071.1 701.88 1089.16 709.26 1104.47C718.93 1124.55 733.37 1124.32 748.1 1143.05C756.12 1153.26 765.47 1169.82 768.58 1196.63M804.83 1048.09C811.06 1061 810.14 1078.49 802.81 1095.01C790.11 1100.73 777.48 1103.47 767.17 1099C752.99 1092.86 746.46 1072.68 747.52 1056.81C747.89 1051.23 749.28 1045.07 751.68 1039.73C754.39 1033.72 758.38 1028.74 763.65 1026.77C767.22 1025.44 772.02 1025.31 777.17 1026.4C788.98 1028.91 799.58 1037.21 804.84 1048.09" fill="#004932"/>
<path d="M1450.02 278.23C1459.59 296.92 1465.94 327.59 1429.74 399.49C1404.53 449.58 1376.9 498.46 1346.99 545.98L1365.38 554.25C1375.66 561.59 1381.31 568.96 1384.85 575.91C1416.64 525.73 1445.94 474.05 1472.61 421.07C1475.93 414.47 1479.24 407.62 1482.43 400.54C1502.36 356.23 1516.93 303.61 1492.74 256.35L1450.01 278.22L1450.02 278.23Z" fill="#004932"/>
<path d="M635.6 2424.84L590.98 2407.15C662.5 2226.67 714.28 2037.68 744.87 1845.41C759.2 1755.33 771.26 1666.91 761.51 1575.64C755.22 1516.71 745.47 1456.91 736.04 1399.09C730.18 1363.18 724.13 1326.05 718.92 1289.3C713.25 1249.3 709.38 1204.1 735.24 1174.03C742.9 1165.12 752.48 1158.41 763.91 1153.92C764.1 1144.36 764.25 1135.3 763.85 1126.37C762.85 1103.77 759.22 1081.45 754.83 1059.29C750.73 1038.6 756.97 1023.26 781.19 1028.37C788.65 1029.95 797.38 1039.32 801.07 1045.75C804.71 1052.11 804.3 1061.88 805.52 1068.99C808.67 1087.26 810.97 1105.71 811.8 1124.24C812.15 1132.16 812.14 1140 812.02 1147.68C838.98 1150.75 864.31 1167.35 878.4 1191.83C892.58 1216.46 892.58 1244.28 878.42 1268.15C861.52 1296.63 838.99 1296.11 830.09 1294.57C813.93 1291.77 799.07 1279.93 785.91 1259.4C776.86 1245.27 769.65 1228.35 767.1 1215.24C767 1214.73 766.9 1214.21 766.81 1213.7C759.41 1232.86 764.04 1265.57 766.45 1282.56C771.59 1318.81 777.6 1355.69 783.42 1391.35C792.96 1449.82 802.82 1510.28 809.25 1570.53C819.62 1667.66 807.14 1759.54 792.28 1852.94C761.14 2048.67 708.43 2241.08 635.61 2424.82M835.96 1245.52C836.32 1245 836.71 1244.39 837.14 1243.68C843.72 1232.58 840.59 1222.39 836.8 1215.8C831.55 1206.69 822.46 1199.66 812.79 1196.71C813.15 1199.88 813.62 1203.01 814.22 1206.09C816.8 1219.35 828.51 1239.02 835.97 1245.52" fill="#D7FF3C"/>
<path d="M645.7 1149.9C632.17 1163.58 625.61 1182.54 627.23 1203.29C629.09 1227.3 641.48 1249.95 660.37 1263.88C668.03 1269.54 676.29 1275.06 685.44 1277.98C689.83 1279.38 694.69 1280.27 699.25 1279.15C705.36 1277.64 706.18 1269.04 707.09 1263.65C708.52 1255.16 707.84 1242.5 713.63 1235.49C705.74 1231.12 696.37 1230.77 688.88 1225.25C681.29 1219.65 675.88 1209.56 675.1 1199.56C674.84 1196.25 675.03 1192.02 676.75 1188.19C677.48 1186.57 678.48 1185.02 679.85 1183.64C686.42 1177 693.17 1179.75 700.99 1179.71C708.81 1179.67 716.73 1174.37 720.36 1167.6C721.16 1166.1 721.81 1164.48 721.97 1162.78C722.18 1160.65 721.62 1158.52 721.02 1156.46C719.33 1150.7 717.21 1144.97 713.66 1140.13C697.96 1118.74 660.54 1134.91 645.73 1149.88" fill="#7F35E9"/>
<path d="M826.4 1133.09C829.07 1137.73 830.49 1142.81 831.21 1150C832.42 1162.14 829.86 1174.71 823.94 1185.38C818.17 1195.79 809.75 1204.54 800.21 1211.57C790.33 1218.85 779.28 1221.72 766.95 1219.18C766.88 1223.24 766.82 1227.29 766.75 1231.35C766.69 1235.01 766.63 1238.68 766.96 1242.32C767.57 1249.03 768.5 1255.05 768.8 1261.77C769.13 1269.26 769.97 1276.77 772.13 1283.97C773.7 1289.18 776.04 1295.54 779.8 1299.62C780.81 1300.71 790.26 1305 790.25 1305.42C790.63 1293.94 790.78 1282.46 790.67 1270.99C824.1 1257.79 850.84 1235.85 865.92 1208.65C876.88 1188.9 881.38 1165.46 878.6 1142.66C877.46 1133.3 875 1124.09 871.34 1115.41C867.1 1105.39 861.21 1095.98 853.57 1088.19C845.65 1080.11 836.43 1075.48 826.38 1070.74C822.25 1068.8 817.92 1067.28 813.48 1066.22C811.33 1065.71 809.14 1065.29 806.97 1064.95C805.04 1064.65 804.83 1065.16 805.38 1067.2C806.89 1072.76 807.42 1078.16 808.08 1083.77C808.78 1089.78 809.72 1095.75 810.31 1101.78C810.62 1104.98 810.92 1108.19 811.1 1111.41C811.23 1113.75 811.35 1116.18 813.13 1117.93C814.5 1119.29 815.98 1120.54 817.34 1121.91C821.34 1125.92 824.27 1129.36 826.4 1133.07" fill="#7F35E9"/>
<path d="M785.91 1259.42C775.68 1243.45 751.63 1199.84 779.66 1188.01C786.34 1185.19 794.82 1185.25 801.91 1186.07C805.71 1186.51 809.69 1188.08 811.58 1191.4C812.58 1193.15 812.89 1195.19 813.19 1197.18C813.79 1201.18 814.02 1205.46 815.01 1209.38C815.84 1212.69 817.26 1216.13 818.66 1219.27C821.94 1226.64 827.21 1240.31 834.72 1244.41C837.62 1245.99 838.91 1244.21 842.72 1246.95C846.54 1249.7 849.57 1254.15 851.44 1258.4C854.39 1265.13 854.81 1272.93 852.6 1279.93C851.24 1284.26 848.82 1288.37 845.2 1291.11C823.87 1307.29 795.7 1274.7 785.91 1259.42Z" fill="#D7FF3C"/>
<path d="M677.9 259.251C665.65 263.901 655.05 271.171 647.22 282.441C641.27 339.101 638.89 397.191 640.14 455.791C641.64 526.201 648.44 599.401 660.33 673.511L674.66 679.961L673.2 683.201L713.91 701.511C698.46 616.451 689.81 533.941 688.13 454.771C686.7 387.911 690.17 321.791 698.43 257.861C697.08 257.661 695.73 257.501 694.37 257.401C689.05 257.011 683.1 257.281 677.91 259.251" fill="#D7FF3C"/>
</svg>
